<svg xmlns="http://www.w3.org/2000/svg" width="407.675" height="407.675" viewBox="0 0 407.675 407.675"><path fill="#FFF" d="M164.684 348.36a9.993 9.993 0 0 1-8.67-5c-2.76-4.782-1.12-10.897 3.66-13.66l218-125.863-218-125.862c-4.782-2.76-6.42-8.877-3.66-13.66 2.762-4.783 8.88-6.42 13.66-3.66l233 134.522a10 10 0 0 1 0 17.32l-233 134.522a9.95 9.95 0 0 1-4.99 1.34z"/><path fill="#FFF" d="M10.012 348.36a9.996 9.996 0 0 1-8.67-5c-2.762-4.782-1.122-10.897 3.66-13.66l218-125.863-218-125.862c-4.783-2.76-6.422-8.877-3.66-13.66 2.762-4.783 8.88-6.42 13.66-3.66l233 134.522a10 10 0 0 1 0 17.32l-233 134.522a9.94 9.94 0 0 1-4.99 1.34z"/></svg>